<svg width="200" height="280" viewBox="0 0 200 280" fill="none" xmlns="http://www.w3.org/2000/svg">
  <!-- 本の背景 -->
  <rect width="200" height="280" fill="#ffffff" stroke="#e5e7eb" stroke-width="2" rx="8"/>
  
  <!-- 本の影 -->
  <rect x="4" y="4" width="200" height="280" fill="#f3f4f6" rx="8" opacity="0.5"/>
  
  <!-- 本のメイン部分 -->
  <rect x="0" y="0" width="200" height="280" fill="#fafafa" stroke="#d1d5db" stroke-width="1" rx="8"/>
  
  <!-- タイトル部分 -->
  <rect x="20" y="30" width="160" height="6" fill="#374151" rx="3"/>
  <rect x="20" y="45" width="120" height="4" fill="#6b7280" rx="2"/>
  <rect x="20" y="58" width="140" height="4" fill="#6b7280" rx="2"/>
  
  <!-- 著者部分 -->
  <rect x="20" y="80" width="80" height="3" fill="#9ca3af" rx="1.5"/>
  
  <!-- 本のアイコン -->
  <g transform="translate(75, 120)">
    <rect width="50" height="60" fill="#3b82f6" rx="4"/>
    <rect x="5" y="5" width="40" height="50" fill="#60a5fa" rx="2"/>
    <rect x="10" y="15" width="30" height="2" fill="#ffffff" opacity="0.8"/>
    <rect x="10" y="22" width="25" height="2" fill="#ffffff" opacity="0.6"/>
    <rect x="10" y="29" width="28" height="2" fill="#ffffff" opacity="0.6"/>
    <rect x="10" y="36" width="20" height="2" fill="#ffffff" opacity="0.6"/>
  </g>
  
  <!-- 出版社情報 -->
  <rect x="20" y="200" width="60" height="3" fill="#9ca3af" rx="1.5"/>
  
  <!-- ISBN -->
  <rect x="20" y="220" width="100" height="3" fill="#9ca3af" rx="1.5"/>
  
  <!-- 価格 -->
  <rect x="20" y="240" width="50" height="4" fill="#059669" rx="2"/>
  
  <!-- 装飾線 -->
  <line x1="20" y1="260" x2="180" y2="260" stroke="#e5e7eb" stroke-width="1"/>
</svg> 